<?xml version="1.0" encoding="UTF-8" standalone="no"?>
<!-- Created with Inkscape (http://www.inkscape.org/) -->

<svg
   xmlns:dc="http://purl.org/dc/elements/1.1/"
   xmlns:cc="http://creativecommons.org/ns#"
   xmlns:rdf="http://www.w3.org/1999/02/22-rdf-syntax-ns#"
   xmlns:svg="http://www.w3.org/2000/svg"
   xmlns="http://www.w3.org/2000/svg"
   xmlns:sodipodi="http://sodipodi.sourceforge.net/DTD/sodipodi-0.dtd"
   xmlns:inkscape="http://www.inkscape.org/namespaces/inkscape"
   width="1000"
   height="1000"
   id="svg10411"
   version="1.1"
   inkscape:version="0.91 r13725"
   viewBox="0 0 1000 1000"
   sodipodi:docname="S.svg">
  <defs
     id="defs5498" />
  <sodipodi:namedview
     inkscape:window-height="618"
     inkscape:window-width="641"
     inkscape:pageshadow="2"
     inkscape:pageopacity="0.0"
     borderopacity="1.0"
     bordercolor="#666666"
     pagecolor="#ffffff"
     id="base"
     showgrid="false"
     showguides="true"
     inkscape:guide-bbox="true"
     inkscape:zoom="0.454"
     inkscape:cx="788.54626"
     inkscape:cy="555.06608"
     inkscape:window-x="0"
     inkscape:window-y="25"
     inkscape:current-layer="layer1">
    <sodipodi:guide
       orientation="horizontal"
       position="200"
       id="guide5596" />
  </sodipodi:namedview>
  <metadata
     id="metadata5594">
    <rdf:RDF>
      <cc:Work
         rdf:about="">
        <dc:format>image/svg+xml</dc:format>
        <dc:type
           rdf:resource="http://purl.org/dc/dcmitype/StillImage" />
        <dc:title></dc:title>
      </cc:Work>
    </rdf:RDF>
  </metadata>
  <g
     inkscape:label="Layer 1"
     inkscape:groupmode="layer"
     id="layer1">
    <path
       style="fill:#000000;fill-opacity:1;fill-rule:nonzero;stroke:none;stroke-width:1px;stroke-linecap:butt;stroke-linejoin:miter;stroke-opacity:1"
       d="M 278.23633 23.136719 C 272.8388 23.036313 267.70029 24.478897 262.80078 26.984375 C 242.7159 41.411544 232.40651 67.885923 229.99805 92.230469 C 229.20265 104.73496 230.80367 117.19238 232.56445 129.54297 C 235.05382 146.90908 239.05789 163.99412 243.57227 180.92969 C 249.00779 200.64466 255.82503 219.93532 263.17188 239.00781 C 271.37617 260.10826 280.8888 280.65887 290.73438 301.0332 C 301.2806 322.61921 312.7873 343.71179 324.48828 364.6875 C 335.73511 384.92702 347.36296 404.95017 358.92578 425.00977 C 368.80062 442.1554 379.06799 459.06977 389.49023 475.88672 C 397.36616 488.58734 405.34287 501.22461 413.29297 513.87891 C 418.74744 522.56071 424.20178 531.24204 429.65625 539.92383 C 433.61738 546.21806 437.73265 552.41135 442.3125 558.27344 C 446.60506 563.74106 452.16466 567.67201 458.24023 570.90039 C 466.47624 574.89129 475.56199 576.38921 484.53711 577.67578 C 497.29216 579.27175 510.06956 580.67172 522.81445 582.35156 C 538.14731 584.36921 553.40255 586.91336 568.67578 589.32812 C 585.14289 591.95105 601.69242 593.99656 618.22461 596.1543 C 633.63592 598.10497 649.01383 600.2972 664.33398 602.86719 C 677.43585 605.06871 690.45745 607.69655 703.47656 610.33398 C 713.68941 612.48291 723.90062 614.64321 734.07227 616.98047 C 736.82687 617.62921 739.58461 618.26472 742.3418 618.90234 C 736.17712 621.77045 729.97115 624.55183 723.76562 627.32812 C 711.86763 632.60393 699.94802 637.83 687.99609 642.98242 C 674.48299 649.00805 660.59377 654.08961 646.65234 659.01562 C 631.29621 664.31912 615.84802 669.35389 600.44531 674.51953 C 584.00406 680.17631 567.43582 685.43704 550.79102 690.45898 C 532.76482 695.84079 514.51977 700.45445 496.27148 705.01172 C 485.73467 707.63077 475.17658 710.15614 464.61328 712.66602 C 469.7512 708.25238 474.87274 703.82039 479.97852 699.37109 C 489.04056 691.51533 498.0029 683.54605 506.73438 675.32422 L 516.80859 623.82031 C 508.35589 632.58303 499.48376 640.92122 490.39453 649.02148 C 476.29959 661.73054 462.10963 674.35039 447.30859 686.23828 C 435.14488 695.73784 422.85349 705.22411 409.11914 712.38672 C 400.63972 716.62997 391.94289 720.35786 382.86133 723.13086 C 377.6768 724.77937 372.42615 726.06961 367.12305 727.26562 C 364.80546 727.85263 362.48019 728.47141 360.15234 728.93359 L 345.3457 781.82031 C 347.1715 780.66623 349.40757 780.00095 351.4707 779.31445 C 353.97823 778.46639 356.5155 777.71836 359.05859 776.99023 L 356.58984 784.88672 L 363.57227 783.16016 C 372.69011 780.90642 381.8097 778.65332 390.92773 776.40039 C 404.07936 773.15114 417.22663 769.8895 430.36133 766.57227 C 447.27877 762.30015 464.21588 758.10372 481.15039 753.90039 C 499.48787 749.29514 517.83155 744.69208 536.03516 739.58008 C 552.78832 734.77081 569.46409 729.68767 585.96484 724.06641 C 601.35983 718.9038 616.82115 713.93973 632.20898 708.75586 C 646.32092 704.00286 660.43795 699.21557 674.13867 693.35547 C 686.09168 688.3152 698.01657 683.21073 709.9082 678.02734 C 720.19819 673.65489 730.42476 669.13255 740.61523 664.5332 C 748.79103 660.62606 756.89579 656.58833 764.73047 652.02539 C 770.84615 648.64647 777.02865 645.40399 783.41016 642.55078 C 787.74135 640.47684 792.15953 638.57316 796.74609 637.13086 C 799.5457 636.2799 802.38505 635.58105 805.16797 634.68555 C 805.42474 634.58792 808.15662 633.90361 808.19922 633.81641 C 832.51523 584.06352 846.61477 594.32791 828.92969 582.90039 C 827.52936 582.17792 826.18094 581.41824 824.62109 581.12109 C 823.40314 580.83279 822.16165 580.65404 820.93359 580.41406 C 819.10189 580.07891 817.27049 579.74286 815.43555 579.42578 C 812.53495 578.94039 809.62884 578.49487 806.73242 577.98438 C 802.69029 577.2722 798.64817 576.5618 794.60742 575.8418 C 788.89032 574.81709 783.17983 573.75207 777.47852 572.64258 C 769.76784 571.12056 762.07116 569.53102 754.38477 567.89062 C 744.05147 565.72199 733.68898 563.70259 723.32617 561.67969 C 710.13453 559.23757 696.95086 556.74212 683.69922 554.64062 C 668.2192 552.11334 652.68498 549.97844 637.11523 548.08008 C 620.68408 546.04002 604.24768 543.99947 587.90039 541.35547 C 572.60279 538.82441 557.33248 536.12696 541.98828 533.88477 C 529.37548 532.04036 516.73818 530.37642 504.12695 528.52539 C 496.44253 527.28529 488.59589 526.02132 481.57617 522.47461 C 476.85519 519.80264 472.76547 516.41865 469.58398 511.9707 C 465.30829 506.29351 461.32017 500.41215 457.43945 494.45898 C 451.83634 486.02214 446.23393 477.58528 440.63672 469.14453 C 432.48753 456.84622 424.34229 444.54421 416.38086 432.12305 C 405.86817 415.63821 395.54176 399.03491 385.65039 382.16797 C 373.96387 362.32134 362.35191 342.42944 351.16602 322.29492 C 339.58842 301.43427 328.24401 280.43139 318.01758 258.86719 C 308.46688 238.53506 299.21046 218.04951 291.40039 196.97266 C 284.44517 177.95908 277.93808 158.76114 273.02539 139.10352 C 268.95248 122.21318 265.36979 105.17632 263.5957 87.869141 C 263.16956 83.147947 262.7639 78.382323 262.60352 73.617188 C 267.95138 74.010368 272.76667 76.345654 277.27344 79.183594 C 283.50614 83.172828 289.22819 87.852481 294.60742 92.933594 C 301.45011 99.377489 308.12899 105.99537 314.37305 113.02734 C 321.91811 121.52859 329.43644 130.05462 336.79688 138.7168 C 345.43255 148.98777 353.93758 159.37078 362.46875 169.72852 C 372.18781 181.40966 381.96453 193.04141 391.8457 204.58594 C 402.98611 217.63173 414.15562 230.65379 425.05078 243.90625 C 437.46975 259.02241 449.68172 274.30574 461.99023 289.51172 C 474.77857 305.29582 487.51934 321.11792 500.46289 336.77539 C 513.12859 352.0238 525.979 367.1168 538.95117 382.10547 C 550.88542 395.94906 562.83666 409.78594 574.22266 424.08789 C 582.60818 434.8137 590.71694 445.75208 598.47852 456.93945 C 603.32308 463.76742 608.14975 470.6119 613.12695 477.34375 C 615.72414 480.75921 618.17403 484.277 620.78906 487.67773 C 622.17487 489.4955 623.58249 491.29439 625.19531 492.91602 L 626.20703 491.0918 C 626.21293 491.11327 626.21871 491.13478 626.22461 491.15625 C 626.76132 492.82301 626.47486 492.01618 627.07812 493.58008 L 657.85938 448.46875 C 657.50599 447.15738 657.69767 447.84981 657.28125 446.39648 C 656.33317 443.30989 655.33367 440.24152 654.2793 437.18945 C 652.87315 433.11528 651.39113 429.0673 649.94336 425.00781 C 647.93242 419.45532 645.85588 413.92643 643.68164 408.43555 C 641.28572 402.09558 638.87508 395.76111 636.44141 389.43555 C 633.59208 382.08058 630.74969 374.72483 628.02539 367.32227 C 624.58355 358.29967 621.11468 349.28604 617.87109 340.18945 C 613.98249 329.17357 610.2523 318.09738 606.99219 306.87695 C 603.236 293.74371 599.75417 280.53255 596.79102 267.19531 C 593.56168 252.6102 590.54452 237.97776 587.97852 223.25977 C 585.45585 208.58702 583.10086 193.88106 581.37695 179.08984 C 579.99617 166.57076 578.97459 154.01655 578.42383 141.43164 C 578.12641 133.64161 577.85064 125.84667 578.10352 118.05078 C 578.15447 115.09404 577.78079 111.93429 579.21484 109.28516 L 544.00391 151.4082 C 544.80216 154.43041 544.75218 157.58334 544.83398 160.70312 C 545.10299 168.33728 545.67886 175.96123 546.28711 183.57617 C 547.22908 196.08394 548.59117 208.53796 550.28125 220.96484 C 552.31941 235.78354 554.81419 250.53424 557.46484 265.25391 C 560.1588 280.08964 563.28699 294.83941 566.60352 309.54688 C 569.66636 323.10492 573.24734 336.53474 577.11523 349.88281 C 577.51614 351.21719 577.93336 352.54678 578.3418 353.87891 C 573.67102 348.52856 568.99344 343.18261 564.33203 337.82422 C 551.34001 322.95522 538.59164 307.88157 525.9707 292.69727 C 513.04425 277.09048 500.31926 261.31789 487.55078 245.58203 C 475.24415 230.30553 463.11913 214.88412 450.77148 199.64062 C 439.90232 186.21991 428.74537 173.03761 417.66406 159.79297 C 407.88761 148.16025 398.18201 136.46777 388.57422 124.69531 C 380.06776 114.22434 371.67431 103.65984 363.03125 93.300781 C 355.64946 84.493352 348.14022 75.79356 340.5918 67.128906 C 334.09913 59.854535 327.22657 52.940047 320.16211 46.224609 C 314.33496 40.608673 308.02138 35.589401 301.21484 31.224609 C 295.33503 27.354825 288.90985 24.757596 282.01562 23.458984 C 280.74229 23.265429 279.48191 23.159889 278.23633 23.136719 z M 267.78125 44.167969 C 267.77851 44.183063 267.74765 44.255978 267.67969 44.398438 C 266.97261 45.880602 266.26671 47.363093 265.56055 48.845703 C 265.69113 48.487161 265.81122 48.124508 265.96094 47.773438 C 266.39437 46.757121 267.80044 44.06231 267.78125 44.167969 z M 250.8418 79.601562 C 249.6076 82.151528 248.37437 84.701596 247.12891 87.246094 C 246.22739 89.087899 248.00241 84.178813 249.41797 81.71875 C 249.8422 80.981491 250.364 80.305444 250.8418 79.601562 z M 821.88867 580.73047 C 821.93613 580.62624 821.90095 580.99415 821.81055 581.06445 C 821.78241 581.08634 821.73419 581.10874 821.70117 581.13086 C 821.76423 580.99318 821.82549 580.86908 821.88867 580.73047 z "
       id="path10428" />
  </g>
</svg>
